<svg width="160" height="160" viewBox="0 0 160 160" fill="none" xmlns="http://www.w3.org/2000/svg">
  <defs>
    <linearGradient id="bg" x1="20" y1="18" x2="138" y2="144" gradientUnits="userSpaceOnUse">
      <stop stop-color="#FFF2C4"/>
      <stop offset="0.52" stop-color="#EEF8F1"/>
      <stop offset="1" stop-color="#D8EEDC"/>
    </linearGradient>
    <linearGradient id="hair" x1="54" y1="39" x2="111" y2="108" gradientUnits="userSpaceOnUse">
      <stop stop-color="#183B26"/>
      <stop offset="1" stop-color="#2D6C44"/>
    </linearGradient>
    <linearGradient id="coat" x1="53" y1="96" x2="108" y2="138" gradientUnits="userSpaceOnUse">
      <stop stop-color="#F9FCFA"/>
      <stop offset="1" stop-color="#DCEFE1"/>
    </linearGradient>
  </defs>
  <circle cx="80" cy="80" r="70" fill="url(#bg)"/>
  <path d="M42 123C46.5 102.5 59.5 94 80 94C100.5 94 113.5 102.5 118 123C108 132.5 95.2 138 80 138C64.8 138 52 132.5 42 123Z" fill="url(#coat)"/>
  <path d="M54.5 54C54.5 39.3645 66.3645 27.5 81 27.5C95.6355 27.5 107.5 39.3645 107.5 54V72C107.5 86.6355 95.6355 98.5 81 98.5C66.3645 98.5 54.5 86.6355 54.5 72V54Z" fill="#F4C9A9"/>
  <path d="M52 59C52 40.2223 66.9985 25 85.5 25C101.126 25 114 37.8736 114 53.5V68.5C108.359 67.1677 103.069 63.8418 99.1667 58.9167C92.9527 64.8925 84.6745 68.5 75.5 68.5H52V59Z" fill="url(#hair)"/>
  <path d="M58 69C58 66.2386 60.2386 64 63 64H67V78H63C60.2386 78 58 75.7614 58 73V69Z" fill="#F4C9A9"/>
  <path d="M103 64H107C109.761 64 112 66.2386 112 69V73C112 75.7614 109.761 78 107 78H103V64Z" fill="#F4C9A9"/>
  <path d="M71 83C73.7403 85.2222 77.0892 86.3333 80.5 86.3333C83.9108 86.3333 87.2597 85.2222 90 83" stroke="#A85D42" stroke-width="3" stroke-linecap="round"/>
  <circle cx="72" cy="71" r="3.5" fill="#173222"/>
  <circle cx="90" cy="71" r="3.5" fill="#173222"/>
  <path d="M78 70C79.2 67.3333 80.4 64.6667 81.6 62" stroke="#D28D73" stroke-width="2.5" stroke-linecap="round"/>
  <path d="M58 121C62.7492 111.112 70.9594 106.168 80 106.168C89.0406 106.168 97.2508 111.112 102 121" stroke="#C3DFC8" stroke-width="8" stroke-linecap="round"/>
  <path d="M65 114H95V137.5C90.4535 139.141 85.4252 140 80.1968 140C74.9096 140 69.8288 139.121 65 137.454V114Z" fill="#FFFFFF" fill-opacity="0.82"/>
  <circle cx="119" cy="47" r="16" fill="#F4FBF6"/>
  <path d="M119 39V55" stroke="#17653A" stroke-width="3" stroke-linecap="round"/>
  <path d="M111 47H127" stroke="#17653A" stroke-width="3" stroke-linecap="round"/>
  <circle cx="119" cy="47" r="15" stroke="#D3A326" stroke-width="2"/>
</svg>
